<svg xmlns="http://www.w3.org/2000/svg" xmlns:xlink="http://www.w3.org/1999/xlink" viewBox="0 0 806.04 388.03"><defs><style>.a{fill:none;}.b,.g{fill:#c6dd7f;}.b,.c,.d{mix-blend-mode:multiply;}.c,.e{fill:#e9ddb7;}.d,.f{fill:#a6d0e4;}.h{fill:#c1272d;}.i{fill:#f7931e;}.j{fill:#ad1457;}.k{fill:#ff6f00;}.l{fill:#bf360c;}.m{fill:#311b92;}.n{fill:#dfd7c8;}.o{fill:#4d4d4d;}.p{fill:#353535;}.q{fill:#999;}.r{fill:#b3b3b3;}.s{fill:#29abe2;}.t{opacity:0.25;}.u{fill:url(#a);}.v{fill:#fff;}.w{fill:#ffaeae;}.x{fill:#234910;stroke:#234910;}.aa,.ab,.ac,.ad,.ae,.af,.ag,.ah,.ai,.aj,.am,.x,.y,.z{stroke-width:0.02px;}.y{fill:#499224;stroke:#499224;}.z{fill:#254813;stroke:#254813;}.aa{fill:#224a11;stroke:#224a11;}.ab{fill:#244812;stroke:#244812;}.ac{fill:#aecc9e;stroke:#aecc9e;}.ad{fill:#4a9126;stroke:#4a9126;}.ae{fill:#214b0f;stroke:#214b0f;}.af{fill:#4b9028;stroke:#4b9028;}.ag{fill:#4a9224;stroke:#4a9224;}.ah{fill:#eccf9b;stroke:#eccf9b;}.ai{fill:#4c9028;stroke:#4c9028;}.aj{fill:#306316;stroke:#306316;}.ak{fill:#bf090d;stroke:#bf090d;}.ak,.al{stroke-width:0.07px;}.al{fill:#9e070a;stroke:#9e070a;}.am{fill:#daa26a;stroke:#daa26a;}.an{fill:#f2f2f2;}.ao{fill:#5b5b5b;}</style><pattern id="a" width="144.13" height="138.36" patternTransform="translate(-167.05 -652.2) scale(1.76)" patternUnits="userSpaceOnUse" viewBox="0 0 144.13 138.36"><rect class="a" width="144.13" height="138.36"/><path class="b" d="M211.07,158.52c-11.76-1.38-19.37.35-22.65,3.11-3,2.54-5,5.41-2.25,11.93,2.94,7.09,1.53,14.73-5.54,15.91-6.22,1-10.89-4.84-11.24-12.28-0.24-5.18-1.9-8.3-5.53-7.61s-4.63,5.9-3.63,11.76c1.38,8.13,5.54,11.76,6.23,20.23,0.49,6.05-2.94,13.66-12.45,15-9.3,1.35-15.91-4.32-16.6-10.55-0.73-6.59,3.63-10.89,3.11-17.64s-4-10.17-5.88-17.29c-2.77-10.55,1.21-19,7.78-22.65,14.75-8.15,22.83,3.64,36,1.56,10.9-1.73,23.35-18.16,33-19.54,8.23-1.17,13.83,4.67,15,14S221.72,159.78,211.07,158.52Zm-42.2.52a4.15,4.15,0,1,0-4.15,4.15A4.15,4.15,0,0,0,168.88,159Zm49.46-15.39a1.73,1.73,0,1,0-1.73,1.73A1.73,1.73,0,0,0,218.34,143.65Z"/><path class="c" d="M48.83,139.33c0,7.17,4.59,13.81-1,16.33-8.5,3.83-28-14.33-28-36.17,0-12,8.67-19,17.83-19,12.33,0,18,8.17,18,17.5S48.83,131.14,48.83,139.33ZM43.42,134A2.08,2.08,0,1,0,41.35,136,2.08,2.08,0,0,0,43.42,134Z"/><path class="d" d="M123.53,162.83c-7.87,2.74-19.44-15.3-17.67-27,1.24-8.23,7.12-13.19,13.09-14.22,7.53-1.3,12.9,2.6,13.3,7.24,0.55,6.31-3.63,7.52-4.22,15C127.46,150.93,131.72,160,123.53,162.83Zm-3.79-27.51a2.59,2.59,0,1,0-2.59,2.59A2.59,2.59,0,0,0,119.74,135.32Z"/><circle class="c" cx="16.79" cy="140.36" r="2.59"/><path class="d" d="M84.61,132.64c0.74,8.1,12.67,7,17.9,14.21,10.52,14.47-1.22,46.37-21.63,46.37-11.74,0-24.22-9.72-24.22-29.22,0-15.83,10.17-21.5,8.25-42.17-1-10.83-12.5-20.34-12.5-34.75C52.42,81.16,56,73.64,64,73.64c7.05,0,10.82,6,10.82,12.9s-5.38,15.74,1.37,19c5.24,2.57,13.21-4.77,19.5-6.75,5.19-1.64,12.39.22,14.75,8.5,2.53,8.88-3.25,14.75-11.59,16.69C92.51,125.5,84,126.2,84.61,132.64Zm-16-30.56a3.29,3.29,0,1,0-3.29,3.29A3.29,3.29,0,0,0,68.62,102.08Zm26,9.7a2.33,2.33,0,1,0-2.33-2.33A2.33,2.33,0,0,0,94.61,111.78Zm-20,59.67a3.29,3.29,0,1,0-3.29,3.29A3.29,3.29,0,0,0,74.62,171.45Z"/><path class="b" d="M66.94,158.52c-11.76-1.38-19.37.35-22.65,3.11-3,2.54-5,5.41-2.25,11.93,2.94,7.09,1.53,14.73-5.54,15.91-6.22,1-10.89-4.84-11.24-12.28-0.24-5.18-1.9-8.3-5.53-7.61s-4.63,5.9-3.63,11.76c1.38,8.13,5.54,11.76,6.23,20.23,0.49,6.05-2.94,13.66-12.45,15C0.57,218-6,212.3-6.73,206.08c-0.73-6.59,3.63-10.89,3.11-17.64s-4-10.17-5.88-17.29c-2.77-10.55,1.21-19,7.78-22.65,14.75-8.15,22.83,3.64,36,1.56,10.9-1.73,23.35-18.16,33-19.54,8.23-1.17,13.83,4.67,15,14S77.59,159.78,66.94,158.52Zm-42.2.52a4.15,4.15,0,1,0-4.15,4.15A4.15,4.15,0,0,0,24.75,159Zm49.46-15.39a1.73,1.73,0,1,0-1.73,1.73A1.73,1.73,0,0,0,74.21,143.65Z"/><path class="d" d="M190.32,112c0,6.23-4.15,10.72-8.65,11.59s-8.32-1.28-13,1.21c-4.84,2.59-7.09,11.07-16.78,11.07-8,0-15.22-8-15.22-18.85,0-20.23,13.14-29.23,25.59-29.23C178.91,87.78,190.32,100.4,190.32,112ZM170.61,97.63a3.8,3.8,0,1,0-3.8,3.8A3.8,3.8,0,0,0,170.61,97.63Z"/><path class="b" d="M211.07,20.16c-11.76-1.38-19.37.35-22.65,3.11-3,2.54-5,5.41-2.25,11.93,2.94,7.09,1.53,14.73-5.54,15.91-6.22,1-10.89-4.84-11.24-12.28-0.24-5.18-1.9-8.3-5.53-7.61s-4.63,5.9-3.63,11.76c1.38,8.13,5.54,11.76,6.23,20.23,0.49,6.05-2.94,13.66-12.45,15-9.3,1.35-15.91-4.32-16.6-10.55-0.73-6.59,3.63-10.89,3.11-17.64s-4-10.17-5.88-17.29c-2.77-10.55,1.21-19,7.78-22.65,14.75-8.15,22.83,3.64,36,1.56,10.9-1.73,23.35-18.16,33-19.54,8.23-1.17,13.83,4.67,15,14S221.72,21.41,211.07,20.16Zm-42.2.52a4.15,4.15,0,1,0-4.15,4.15A4.15,4.15,0,0,0,168.88,20.68ZM218.34,5.29A1.73,1.73,0,1,0,216.61,7,1.73,1.73,0,0,0,218.34,5.29Z"/><path class="d" d="M31.83,83.64c-14,2-21.17-13.33-17.67-20.33,3.67-7.33,12.12-4.17,19.5-4.17,9.67,0,16.37-7.57,20.42-2.25C58.33,62.47,49.07,81.18,31.83,83.64Zm0.52-17.48a2.25,2.25,0,1,0-2.25,2.25A2.25,2.25,0,0,0,32.36,66.16Z"/><path class="c" d="M48.83,1c0,7.17,4.59,13.81-1,16.33-8.5,3.83-28-14.33-28-36.17,0-12,8.67-19,17.83-19,12.33,0,18,8.17,18,17.5S48.83-7.22,48.83,1ZM43.42-4.4a2.08,2.08,0,0,0-2.07-2.08A2.08,2.08,0,0,0,39.27-4.4a2.08,2.08,0,0,0,2.08,2.08A2.08,2.08,0,0,0,43.42-4.4Z"/><path class="d" d="M46.19,112c0,6.23-4.15,10.72-8.65,11.59s-8.32-1.28-13,1.21c-4.84,2.59-7.09,11.07-16.77,11.07-8,0-15.22-8-15.22-18.85,0-20.23,13.14-29.23,25.59-29.23C34.78,87.78,46.19,100.4,46.19,112ZM26.48,97.63a3.8,3.8,0,1,0-3.8,3.8A3.8,3.8,0,0,0,26.48,97.63Z"/><circle class="b" cx="43.08" cy="88.3" r="2.42"/><path class="d" d="M129.2,69.79c-3.19,4.68,1,10.72-1.38,15.22s-6.74,5-9.86,2.6c-3.63-2.83-3.41-6.64-8.3-8.82-5.53-2.46-18,2.25-19.71-7.26-0.87-4.81,2.37-8.57,7.26-9.68,6.05-1.38,9.35-.18,15.39-3.11s11.24-9,22.14-12.11c10.41-3,16.07,1.56,16.6,5.88C152.37,61,134.21,62.45,129.2,69.79ZM127,62.35a2.25,2.25,0,1,0-2.25,2.25A2.25,2.25,0,0,0,127,62.35Z"/><path class="c" d="M156.17,109c0,17.17-14.5,25.5-27,22.83-10.26-2.19-12.83-17.33-16.67-26.17-3.71-8.56-8.83-22.5-20.17-22.5S79.5,97.64,68.67,97.64c-11,0-24.5-15.67-24.5-39.67C44.17,43.3,54,26.52,65,27.3,76.67,28.14,69.5,47,80.33,47c9.5,0,7.86-16.26,9.17-23.33,1.67-9,6.83-14.17,18.5-13.17,14.44,1.24,22.33,13.5,18.87,23.34-4,11.45-23.87,17.32-21.54,30.49,1.35,7.59,13,12,26,16.17C145.86,85.13,156.17,91.8,156.17,109Zm-45-75.84a3.29,3.29,0,1,0,3.29-3.29A3.29,3.29,0,0,0,111.21,33.13ZM64.52,58a1.73,1.73,0,1,0-1.73,1.73A1.73,1.73,0,0,0,64.52,58ZM82,68.75a3.8,3.8,0,1,0-3.8,3.8A3.8,3.8,0,0,0,82,68.75Zm19.89-15.56a1.56,1.56,0,1,0-1.56,1.56A1.56,1.56,0,0,0,101.88,53.19Zm29.64,54.69a3.17,3.17,0,1,0-3.17,3.17A3.17,3.17,0,0,0,131.52,107.88Z"/><path class="d" d="M123.53,24.47c-7.87,2.74-19.44-15.3-17.67-27,1.24-8.23,7.12-13.19,13.09-14.22,7.53-1.3,12.9,2.6,13.3,7.24,0.55,6.31-3.63,7.52-4.22,15C127.46,12.57,131.72,21.62,123.53,24.47ZM119.74-3a2.59,2.59,0,0,0-2.59-2.59A2.59,2.59,0,0,0,114.55-3a2.59,2.59,0,0,0,2.59,2.59A2.59,2.59,0,0,0,119.74-3Z"/><circle class="c" cx="16.79" cy="2" r="2.59"/><path class="c" d="M153.38,88.74c0-8.41-5.08-15.23-11.34-15.23s-11.34,6.82-11.34,15.23,5.08,12.44,11.34,12.44S153.38,97.15,153.38,88.74Z"/><path class="d" d="M84.61-5.72c0.74,8.1,12.67,7,17.9,14.21C113,23,101.29,54.86,80.88,54.86c-11.74,0-24.22-9.72-24.22-29.22,0-15.83,10.17-21.5,8.25-42.17-1-10.83-12.5-20.34-12.5-34.75C52.42-57.2,56-64.73,64-64.73c7.05,0,10.82,6,10.82,12.9s-5.38,15.74,1.37,19c5.24,2.57,13.21-4.77,19.5-6.75,5.19-1.64,12.39.22,14.75,8.5,2.53,8.88-3.25,14.75-11.59,16.69C92.51-12.86,84-12.16,84.61-5.72Zm-16-30.56a3.29,3.29,0,0,0-3.29-3.29,3.29,3.29,0,0,0-3.29,3.29A3.29,3.29,0,0,0,65.34-33,3.29,3.29,0,0,0,68.62-36.28Zm26,9.7a2.33,2.33,0,0,0,2.33-2.33,2.33,2.33,0,0,0-2.33-2.33,2.33,2.33,0,0,0-2.33,2.33A2.33,2.33,0,0,0,94.61-26.59Zm-20,59.67a3.29,3.29,0,1,0-3.29,3.29A3.29,3.29,0,0,0,74.62,33.09Z"/><path class="b" d="M66.94,20.16c-11.76-1.38-19.37.35-22.65,3.11-3,2.54-5,5.41-2.25,11.93,2.94,7.09,1.53,14.73-5.54,15.91-6.22,1-10.89-4.84-11.24-12.28-0.24-5.18-1.9-8.3-5.53-7.61S15.1,37.13,16.1,43c1.38,8.13,5.54,11.76,6.23,20.23,0.49,6.05-2.94,13.66-12.45,15C0.57,79.62-6,73.94-6.73,67.72-7.46,61.13-3.1,56.82-3.61,50.08s-4-10.17-5.88-17.29c-2.77-10.55,1.21-19,7.78-22.65C13,2,21.12,13.77,34.26,11.68,45.15,10,57.61-6.47,67.29-7.86c8.23-1.17,13.83,4.67,15,14S77.59,21.41,66.94,20.16Zm-42.2.52a4.15,4.15,0,1,0-4.15,4.15A4.15,4.15,0,0,0,24.75,20.68ZM74.21,5.29A1.73,1.73,0,1,0,72.48,7,1.73,1.73,0,0,0,74.21,5.29Z"/><circle class="b" cx="128.85" cy="42.47" r="1.38"/><circle class="e" cx="133.52" cy="4.08" r="2.25"/><circle class="f" cx="51.03" cy="27.25" r="1.21"/><circle class="f" cx="47.23" cy="95.73" r="1.38"/><circle class="c" cx="131.97" cy="73.77" r="1.21"/><circle class="g" cx="92.48" cy="91.69" r="3.41"/><circle class="c" cx="98.77" cy="131.55" r="2.1"/><circle class="c" cx="60.49" cy="125.25" r="1.57"/><circle class="g" cx="133.12" cy="11.21" r="2.62"/><circle class="d" cx="123.15" cy="46.07" r="2.36"/><circle class="e" cx="25.1" cy="52.63" r="2.62"/><circle class="d" cx="21.43" cy="45.55" r="1.31"/><circle class="c" cx="85.4" cy="97.46" r="1.57"/><path class="d" d="M-14.93,69.79c-3.19,4.68,1,10.72-1.38,15.22s-6.74,5-9.86,2.6c-3.63-2.83-3.41-6.64-8.3-8.82-5.53-2.46-18,2.25-19.71-7.26-0.87-4.81,2.38-8.57,7.26-9.68,6.05-1.38,9.35-.18,15.39-3.11s11.24-9,22.14-12.11C1,43.64,6.68,48.17,7.21,52.5,8.24,61-9.92,62.45-14.93,69.79Zm-2.25-7.44a2.25,2.25,0,0,0-2.25-2.25,2.25,2.25,0,0,0-2.25,2.25,2.25,2.25,0,0,0,2.25,2.25A2.25,2.25,0,0,0-17.18,62.35Z"/><path class="c" d="M12,109c0,17.17-14.5,25.5-27,22.83-10.26-2.19-12.83-17.33-16.67-26.17-3.71-8.56-8.83-22.5-20.17-22.5s-12.83,14.5-23.67,14.5C-86.46,97.64-100,82-100,58c0-14.67,9.8-31.46,20.83-30.67C-67.46,28.14-74.63,47-63.8,47c9.5,0,7.86-16.26,9.17-23.33,1.67-9,6.83-14.17,18.5-13.17C-21.69,11.71-13.8,24-17.26,33.82c-4,11.45-23.87,17.32-21.54,30.49,1.35,7.59,13,12,26,16.17C1.73,85.13,12,91.8,12,109Zm-45-75.84a3.29,3.29,0,0,0,3.29,3.29,3.29,3.29,0,0,0,3.29-3.29,3.29,3.29,0,0,0-3.29-3.29A3.29,3.29,0,0,0-32.91,33.13ZM-79.61,58a1.73,1.73,0,0,0-1.73-1.73A1.73,1.73,0,0,0-83.07,58a1.73,1.73,0,0,0,1.73,1.73A1.73,1.73,0,0,0-79.61,58Zm17.47,10.72a3.8,3.8,0,0,0-3.8-3.8,3.81,3.81,0,0,0-3.8,3.8,3.81,3.81,0,0,0,3.8,3.8A3.8,3.8,0,0,0-62.14,68.75Zm19.89-15.56a1.56,1.56,0,0,0-1.56-1.56,1.56,1.56,0,0,0-1.56,1.56,1.56,1.56,0,0,0,1.56,1.56A1.56,1.56,0,0,0-42.25,53.19Zm29.64,54.69a3.17,3.17,0,0,0-3.17-3.17A3.17,3.17,0,0,0-19,107.88a3.17,3.17,0,0,0,3.17,3.17A3.17,3.17,0,0,0-12.61,107.88Z"/><path class="c" d="M9.26,88.74c0-8.41-5.08-15.23-11.34-15.23s-11.34,6.82-11.34,15.23,5.08,12.44,11.34,12.44S9.26,97.15,9.26,88.74Z"/></pattern></defs><title>hackjam-r1</title><rect class="a" x="41.61" y="294.06" width="16.52" height="10.33" transform="translate(-189 127.82) rotate(-38.58)"/><rect class="h" x="44.71" y="290.96" width="10.33" height="16.52" transform="translate(-166.23 556.22) rotate(-128.58)"/><rect class="a" x="77.1" y="253.39" width="14.3" height="22.87" transform="translate(-141.49 117.08) rotate(-32.21)"/><rect class="h" x="77.1" y="253.39" width="14.3" height="22.87" transform="translate(-141.49 117.08) rotate(-32.21)"/><rect class="a" x="66.72" y="233.97" width="23.59" height="14.74" transform="translate(-49.2 46.22) rotate(-8.78)"/><rect class="h" x="71.14" y="229.55" width="14.74" height="23.59" transform="translate(-161.31 387.17) rotate(-98.78)"/><rect class="a" x="56.46" y="218.69" width="12.88" height="20.6" transform="translate(-74.08 57.69) rotate(-16.03)"/><rect class="h" x="56.46" y="218.69" width="12.88" height="20.6" transform="translate(-74.08 57.69) rotate(-16.03)"/><rect class="a" x="50.46" y="195.01" width="13.73" height="21.96" transform="translate(-164.73 191.17) rotate(-61.96)"/><rect class="h" x="50.46" y="195.01" width="13.73" height="21.96" transform="translate(-164.73 191.17) rotate(-61.96)"/><rect class="a" x="24.95" y="179.81" width="7.93" height="12.68" transform="translate(-120.22 87.04) rotate(-37.31)"/><rect class="h" x="24.95" y="179.81" width="7.93" height="12.68" transform="translate(-120.22 87.04) rotate(-37.31)"/><rect class="a" x="68.28" y="148.1" width="5.58" height="8.92" transform="translate(-74.03 79.32) rotate(-26.57)"/><rect class="h" x="68.28" y="148.1" width="5.58" height="8.92" transform="translate(-74.03 79.32) rotate(-26.57)"/><rect class="a" x="76.45" y="125.74" width="14.92" height="9.32" transform="translate(-62.5 82.29) rotate(-26.39)"/><rect class="h" x="79.24" y="122.94" width="9.32" height="14.92" transform="translate(-8.92 294.93) rotate(-116.39)"/><rect class="a" x="11.76" y="113.91" width="22.39" height="13.99" transform="translate(-113.06 143.11) rotate(-74.96)"/><rect class="h" x="15.96" y="109.71" width="13.99" height="22.39" transform="translate(0.45 275.04) rotate(-164.96)"/><rect class="a" x="82.24" y="114.62" width="8.96" height="5.6" transform="translate(-70.61 172.54) rotate(-62.9)"/><rect class="h" x="83.92" y="112.94" width="5.6" height="8.96" transform="translate(97.13 292.87) rotate(-152.9)"/><rect class="a" x="67.13" y="94.16" width="9.49" height="5.93" transform="translate(-51.49 178.38) rotate(-77.86)"/><rect class="h" x="68.91" y="92.38" width="5.93" height="9.49" transform="translate(108.42 238.62) rotate(-167.86)"/><rect class="a" x="32.26" y="61.6" width="6.11" height="9.78" transform="translate(-51.15 80.19) rotate(-48.42)"/><rect class="h" x="32.26" y="61.6" width="6.11" height="9.78" transform="translate(-51.15 80.19) rotate(-48.42)"/><rect class="a" x="60.42" y="40.87" width="23.52" height="14.7" transform="translate(-26.6 64.53) rotate(-23.73)"/><rect class="h" x="64.83" y="36.46" width="14.7" height="23.52" transform="translate(43.78 165.12) rotate(-113.73)"/><rect class="a" x="74.2" y="27.59" width="18.13" height="11.33" transform="translate(4.6 126.04) rotate(-64.96)"/><rect class="h" x="77.6" y="24.19" width="11.33" height="18.13" transform="translate(131.34 130.04) rotate(-154.96)"/><rect class="a" x="96" y="0.75" width="22.21" height="13.88" transform="matrix(0.96, -0.28, 0.28, 0.96, -11.15, 61.76)"/><rect class="h" x="100.16" y="-3.41" width="13.88" height="22.21" transform="matrix(-0.28, -0.96, 0.96, -0.28, 116.45, 144.07)"/><rect class="a" x="106.06" y="-31.53" width="11.56" height="18.5" transform="translate(71.68 119.97) rotate(-65.11)"/><rect class="h" x="106.06" y="-31.53" width="11.56" height="18.5" transform="translate(71.68 119.97) rotate(-65.11)"/><rect class="a" x="43.5" y="298.6" width="14.88" height="9.3" transform="matrix(0.95, -0.31, 0.31, 0.95, -106.17, 62.87)"/><rect class="i" x="46.29" y="295.81" width="9.3" height="14.88" transform="matrix(-0.31, -0.95, 0.95, -0.31, -234.15, 478.48)"/><rect class="a" x="44.28" y="336.88" width="22.14" height="13.83" transform="translate(-247.95 182.46) rotate(-47.24)"/><rect class="i" x="48.43" y="332.73" width="13.83" height="22.14" transform="translate(-150.69 665.22) rotate(-137.24)"/><rect class="a" x="66.57" y="336.74" width="8.84" height="5.52" transform="translate(-59.54 44.49) rotate(-7.95)"/><rect class="i" x="68.22" y="335.08" width="5.52" height="8.84" transform="matrix(-0.14, -0.99, 0.99, -0.14, -268.74, 488.15)"/><rect class="a" x="80.39" y="299.61" width="8.83" height="5.52" transform="translate(-194.08 166.21) rotate(-42.08)"/><rect class="i" x="82.04" y="297.95" width="5.52" height="8.83" transform="translate(-96.06 599.38) rotate(-132.08)"/><rect class="a" x="100.58" y="292.26" width="23.04" height="14.4" transform="translate(-208.63 418.77) rotate(-85.43)"/><rect class="i" x="104.9" y="287.94" width="14.4" height="23.04" transform="translate(186.7 638.31) rotate(-175.43)"/><rect class="a" x="143.51" y="308.05" width="7.99" height="12.78" transform="translate(-113.4 102.3) rotate(-20.34)"/><rect class="i" x="143.51" y="308.05" width="7.99" height="12.78" transform="translate(-113.4 102.3) rotate(-20.34)"/><rect class="a" x="166.48" y="302.88" width="14.03" height="22.44" transform="translate(-56.33 59.38) rotate(-8.2)"/><rect class="i" x="166.48" y="302.88" width="14.03" height="22.44" transform="translate(-56.33 59.38) rotate(-8.2)"/><rect class="a" x="204.83" y="325.04" width="12.98" height="8.11" transform="translate(-149.53 181.17) rotate(-30)"/><rect class="i" x="207.26" y="322.6" width="8.11" height="12.98" transform="translate(18.69 708.06) rotate(-120)"/><rect class="a" x="208.85" y="222.81" width="16.72" height="10.45" transform="translate(-38.38 58.27) rotate(-6.69)"/><rect class="i" x="211.98" y="219.68" width="10.45" height="16.72" transform="translate(2.73 501.74) rotate(-96.69)"/><rect class="a" x="197.97" y="196.06" width="5.87" height="9.4" transform="translate(-78 131.59) rotate(-24.24)"/><rect class="i" x="197.97" y="196.06" width="5.87" height="9.4" transform="translate(-78 131.59) rotate(-24.24)"/><rect class="a" x="164.45" y="209.98" width="23.24" height="14.53" transform="translate(-61.33 81.41) rotate(-14.24)"/><rect class="i" x="168.8" y="205.62" width="14.53" height="23.24" transform="translate(-4.47 472.76) rotate(-104.24)"/><rect class="a" x="168.19" y="165.03" width="11.08" height="17.73" transform="translate(-57.65 91.91) rotate(-17.55)"/><rect class="i" x="168.19" y="165.03" width="11.08" height="17.73" transform="translate(-57.65 91.91) rotate(-17.55)"/><rect class="a" x="155.99" y="146.85" width="15.3" height="9.56" transform="translate(-54.93 95.69) rotate(-19.77)"/><rect class="i" x="158.86" y="143.98" width="9.56" height="15.3" transform="translate(62.99 388.33) rotate(-109.77)"/><rect class="a" x="130.96" y="156.08" width="7.03" height="11.25" transform="matrix(0.76, -0.65, 0.65, 0.76, -85.89, 156.32)"/><rect class="i" x="130.96" y="156.08" width="7.03" height="11.25" transform="matrix(0.76, -0.65, 0.65, 0.76, -85.89, 156.32)"/><rect class="a" x="112.24" y="127.21" width="9.86" height="15.78" transform="matrix(0.5, -0.87, 0.87, 0.5, -71.77, 200.12)"/><rect class="i" x="112.24" y="127.21" width="9.86" height="15.78" transform="matrix(0.5, -0.87, 0.87, 0.5, -71.77, 200.12)"/><rect class="a" x="83.59" y="126.15" width="13.56" height="21.69" transform="translate(-75.57 108.12) rotate(-35.04)"/><rect class="i" x="83.59" y="126.15" width="13.56" height="21.69" transform="translate(-75.57 108.12) rotate(-35.04)"/><rect class="a" x="52.21" y="145.41" width="22.69" height="14.18" transform="translate(-56.11 57.5) rotate(-17.45)"/><rect class="i" x="56.47" y="141.15" width="14.18" height="22.69" transform="translate(-76.15 290.28) rotate(-107.45)"/><rect class="a" x="117.33" y="137.39" width="12.24" height="19.59" transform="translate(-64.11 97.76) rotate(-25.13)"/><rect class="i" x="117.33" y="137.39" width="12.24" height="19.59" transform="translate(-64.11 97.76) rotate(-25.13)"/><rect class="a" x="99.63" y="120.12" width="16.11" height="10.07" transform="translate(-59.39 216.66) rotate(-70.64)"/><rect class="i" x="102.65" y="117.1" width="10.07" height="16.11" transform="translate(154.48 310.35) rotate(-160.64)"/><rect class="a" x="80.07" y="95.94" width="20.72" height="12.95" transform="translate(-47.05 190.77) rotate(-73.19)"/><rect class="i" x="83.96" y="92.05" width="12.95" height="20.72" transform="translate(134.08 258.01) rotate(-163.19)"/><rect class="a" x="123.38" y="94.88" width="6.73" height="10.77" transform="translate(-31.52 203.09) rotate(-64.57)"/><rect class="i" x="123.38" y="94.88" width="6.73" height="10.77" transform="translate(-31.52 203.09) rotate(-64.57)"/><rect class="a" x="139.93" y="91.45" width="16.7" height="10.44" transform="translate(-17.53 38.24) rotate(-2.6)"/><rect class="i" x="143.06" y="88.32" width="10.44" height="16.7" transform="translate(45.13 280.6) rotate(-92.6)"/><rect class="a" x="161.11" y="66.54" width="5.29" height="8.46" transform="translate(-19.35 47.5) rotate(-5.52)"/><rect class="i" x="161.11" y="66.54" width="5.29" height="8.46" transform="translate(-19.35 47.5) rotate(-5.52)"/><rect class="a" x="137.61" y="17.38" width="21.02" height="13.14" transform="translate(84.99 196.89) rotate(-79.79)"/><rect class="i" x="141.55" y="13.44" width="13.14" height="21.02" transform="translate(276.35 105.2) rotate(-169.79)"/><rect class="a" x="144.73" y="-0.88" width="9.38" height="5.86" transform="translate(75.23 169.93) rotate(-66.73)"/><rect class="i" x="146.49" y="-2.64" width="5.86" height="9.38" transform="translate(272.59 94.36) rotate(-156.73)"/><rect class="a" x="650.16" y="283.6" width="12.43" height="19.88" transform="translate(-70.44 236.17) rotate(-17)"/><rect class="j" x="650.16" y="283.6" width="12.43" height="19.88" transform="translate(-70.44 236.17) rotate(-17)"/><rect class="a" x="666.78" y="292.24" width="9.54" height="15.26" transform="translate(339.23 993.95) rotate(-88.36)"/><rect class="j" x="666.78" y="292.24" width="9.54" height="15.26" transform="translate(339.23 993.95) rotate(-88.36)"/><rect class="a" x="680.93" y="299.42" width="21.95" height="13.72" transform="translate(-65.38 199.77) rotate(-13.37)"/><rect class="j" x="685.04" y="295.31" width="13.72" height="21.95" transform="translate(540.68 1081.68) rotate(-103.37)"/><rect class="a" x="696" y="251.43" width="12.68" height="20.3" transform="translate(-36.13 482.26) rotate(-35.05)"/><rect class="j" x="696" y="251.43" width="12.68" height="20.3" transform="translate(-36.13 482.26) rotate(-35.05)"/><rect class="a" x="714.25" y="239.23" width="13.82" height="8.64" transform="matrix(0.97, -0.26, 0.26, 0.97, -51.89, 228.47)"/><rect class="j" x="716.85" y="236.64" width="8.64" height="13.82" transform="translate(661.38 1034.72) rotate(-105.16)"/><rect class="a" x="761.97" y="232.38" width="8.06" height="5.04" transform="translate(74.48 692.88) rotate(-49.22)"/><rect class="j" x="763.49" y="230.87" width="5.04" height="8.06" transform="translate(1179.27 944.55) rotate(-139.22)"/><rect class="a" x="809.37" y="203.46" width="7.48" height="11.97" transform="translate(535.61 1037.86) rotate(-86.1)"/><rect class="j" x="809.37" y="203.46" width="7.48" height="11.97" transform="translate(535.61 1037.86) rotate(-86.1)"/><rect class="a" x="762.97" y="161.73" width="9.75" height="6.1" transform="translate(-16.16 45.37) rotate(-1.04)"/><rect class="j" x="764.8" y="159.9" width="6.1" height="9.75" transform="translate(603.74 966.9) rotate(-91.04)"/><rect class="a" x="788.46" y="108.63" width="17.33" height="10.83" transform="translate(-20.5 107.24) rotate(-5.42)"/><rect class="j" x="791.71" y="105.38" width="10.83" height="17.33" transform="translate(745.6 949.79) rotate(-95.42)"/><rect class="a" x="777.84" y="64.23" width="14.84" height="23.75" transform="translate(23.72 357.64) rotate(-24.02)"/><rect class="j" x="777.84" y="64.23" width="14.84" height="23.75" transform="translate(23.72 357.64) rotate(-24.02)"/><rect class="a" x="734.3" y="51.23" width="14.8" height="23.69" transform="translate(321.61 717.87) rotate(-61.73)"/><rect class="j" x="734.3" y="51.23" width="14.8" height="23.69" transform="translate(321.61 717.87) rotate(-61.73)"/><rect class="a" x="716.74" y="31.81" width="11.8" height="7.38" transform="translate(-2.64 195.53) rotate(-13.05)"/><rect class="j" x="718.95" y="29.59" width="7.38" height="11.8" transform="translate(837.97 778.9) rotate(-103.05)"/><rect class="a" x="684.63" y="26.49" width="19.89" height="12.43" transform="translate(228.28 591.65) rotate(-52.04)"/><rect class="j" x="688.36" y="22.76" width="12.43" height="19.89" transform="translate(1208.81 517.12) rotate(-142.04)"/><rect class="a" x="652.86" y="38.34" width="14.07" height="8.8" transform="translate(242.96 597.96) rotate(-56.09)"/><rect class="j" x="655.5" y="35.71" width="8.8" height="14.07" transform="translate(1170.4 477.8) rotate(-146.09)"/><rect class="a" x="653.75" y="-2.96" width="12.54" height="7.84" transform="translate(626.17 692.08) rotate(-88.3)"/><rect class="j" x="656.1" y="-5.31" width="7.84" height="12.54" transform="translate(1306.43 52.93) rotate(-178.3)"/><rect class="a" x="683.1" y="300.66" width="14.44" height="23.1" transform="translate(-66.91 487.06) rotate(-35.25)"/><rect class="k" x="683.1" y="300.66" width="14.44" height="23.1" transform="translate(-66.91 487.06) rotate(-35.25)"/><rect class="a" x="724.86" y="321.77" width="7.36" height="11.78" transform="translate(282.16 1030.32) rotate(-81.39)"/><rect class="k" x="724.86" y="321.77" width="7.36" height="11.78" transform="translate(282.16 1030.32) rotate(-81.39)"/><rect class="a" x="722.49" y="261.72" width="10.66" height="6.66" transform="translate(267.65 929.13) rotate(-74.78)"/><rect class="k" x="722.49" y="261.72" width="10.66" height="6.66" transform="translate(267.65 929.13) rotate(-74.78)"/><rect class="a" x="762.02" y="243.08" width="12.62" height="7.89" transform="translate(-49.65 340.38) rotate(-22.22)"/><rect class="k" x="762.02" y="243.08" width="12.62" height="7.89" transform="translate(-49.65 340.38) rotate(-22.22)"/><rect class="a" x="717.88" y="151.16" width="13.63" height="8.52" transform="translate(145.77 665.79) rotate(-52.36)"/><rect class="k" x="717.88" y="151.16" width="13.63" height="8.52" transform="translate(145.77 665.79) rotate(-52.36)"/><rect class="a" x="725.72" y="231.61" width="11.24" height="7.03" transform="translate(130.06 760.92) rotate(-57.88)"/><rect class="k" x="725.72" y="231.61" width="11.24" height="7.03" transform="translate(130.06 760.92) rotate(-57.88)"/><rect class="a" x="724.18" y="217.21" width="13.11" height="20.98" transform="translate(-24.25 448.11) rotate(-31.6)"/><rect class="k" x="724.18" y="217.21" width="13.11" height="20.98" transform="translate(-24.25 448.11) rotate(-31.6)"/><rect class="a" x="744.05" y="152.83" width="12.94" height="8.09" transform="translate(501 917.72) rotate(-83.86)"/><rect class="k" x="744.05" y="152.83" width="12.94" height="8.09" transform="translate(501 917.72) rotate(-83.86)"/><rect class="a" x="760.2" y="122.41" width="14.88" height="9.3" transform="matrix(0.77, -0.64, 0.64, 0.77, 85.2, 555.53)"/><rect class="k" x="760.2" y="122.41" width="14.88" height="9.3" transform="translate(85.2 555.53) rotate(-40.08)"/><rect class="a" x="707.96" y="117.4" width="19.35" height="12.09" transform="translate(56 486.36) rotate(-36.84)"/><rect class="k" x="707.96" y="117.4" width="19.35" height="12.09" transform="translate(56 486.36) rotate(-36.84)"/><rect class="a" x="765.24" y="70.92" width="10.23" height="6.4" transform="translate(37.72 391.01) rotate(-27.14)"/><rect class="k" x="765.24" y="70.92" width="10.23" height="6.4" transform="translate(37.72 391.01) rotate(-27.14)"/><rect class="a" x="697.46" y="72.11" width="9.05" height="14.48" transform="translate(275.43 683.73) rotate(-60.65)"/><rect class="k" x="697.46" y="72.11" width="9.05" height="14.48" transform="translate(275.43 683.73) rotate(-60.65)"/><rect class="a" x="686.09" y="47.65" width="16.4" height="10.25" transform="translate(399.91 721.23) rotate(-70.54)"/><rect class="k" x="686.09" y="47.65" width="16.4" height="10.25" transform="translate(399.91 721.23) rotate(-70.54)"/><rect class="a" x="672.22" y="16.29" width="9.52" height="15.23" transform="translate(85.39 408.09) rotate(-33.41)"/><rect class="k" x="672.22" y="16.29" width="9.52" height="15.23" transform="translate(85.39 408.09) rotate(-33.41)"/><rect class="a" x="653.35" y="11.14" width="15.64" height="9.78" transform="translate(176.15 510.99) rotate(-45.89)"/><rect class="k" x="653.35" y="11.14" width="15.64" height="9.78" transform="translate(176.15 510.99) rotate(-45.89)"/><rect class="a" x="562.94" y="289.51" width="22.6" height="14.13" transform="translate(69.76 748.04) rotate(-67.85)"/><rect class="l" x="562.94" y="289.51" width="22.6" height="14.13" transform="translate(69.76 748.04) rotate(-67.85)"/><rect class="a" x="627.53" y="274.34" width="13.26" height="8.29" transform="translate(96.74 762.67) rotate(-64.53)"/><rect class="l" x="627.53" y="274.34" width="13.26" height="8.29" transform="translate(96.74 762.67) rotate(-64.53)"/><rect class="a" x="628.91" y="248.54" width="10.47" height="16.76" transform="translate(-63.29 298.06) rotate(-22.87)"/><rect class="l" x="628.91" y="248.54" width="10.47" height="16.76" transform="translate(-63.29 298.06) rotate(-22.87)"/><rect class="a" x="628.84" y="214.14" width="9.33" height="5.83" transform="translate(233.05 794.87) rotate(-73.59)"/><rect class="l" x="628.84" y="214.14" width="9.33" height="5.83" transform="translate(233.05 794.87) rotate(-73.59)"/><rect class="a" x="678.74" y="202.69" width="9.44" height="15.11" transform="translate(66.84 625.48) rotate(-49.56)"/><rect class="l" x="678.74" y="202.69" width="9.44" height="15.11" transform="translate(66.84 625.48) rotate(-49.56)"/><rect class="a" x="622.69" y="152.51" width="16.3" height="10.19" transform="translate(397.57 800.9) rotate(-84.25)"/><rect class="l" x="622.69" y="152.51" width="16.3" height="10.19" transform="translate(397.57 800.9) rotate(-84.25)"/><rect class="a" x="662.7" y="183.96" width="22.68" height="14.17" transform="translate(272.7 805.77) rotate(-72.19)"/><rect class="l" x="662.7" y="183.96" width="22.68" height="14.17" transform="translate(272.7 805.77) rotate(-72.19)"/><rect class="a" x="669.38" y="166.02" width="8.51" height="13.62" transform="translate(-32.04 269.48) rotate(-19.77)"/><rect class="l" x="669.38" y="166.02" width="8.51" height="13.62" transform="translate(-32.04 269.48) rotate(-19.77)"/><rect class="a" x="678.65" y="141.49" width="17.91" height="11.19" transform="translate(96.21 578.79) rotate(-46.77)"/><rect class="l" x="678.65" y="141.49" width="17.91" height="11.19" transform="translate(96.21 578.79) rotate(-46.77)"/><rect class="a" x="702.52" y="122.3" width="20.08" height="12.55" transform="translate(-18.75 253.43) rotate(-17.64)"/><rect class="l" x="702.52" y="122.3" width="20.08" height="12.55" transform="translate(-18.75 253.43) rotate(-17.64)"/><rect class="a" x="649.41" y="41.82" width="14.51" height="23.21" transform="translate(16.82 288.55) rotate(-22.66)"/><rect class="l" x="649.41" y="41.82" width="14.51" height="23.21" transform="translate(16.82 288.55) rotate(-22.66)"/><rect class="a" x="618.19" y="42.41" width="23.66" height="14.79" transform="translate(15.37 275.58) rotate(-22.43)"/><rect class="l" x="618.19" y="42.41" width="23.66" height="14.79" transform="translate(15.37 275.58) rotate(-22.43)"/><rect class="a" x="586.41" y="59.89" width="21.46" height="13.41" transform="translate(-10.29 187.52) rotate(-14.93)"/><rect class="l" x="586.41" y="59.89" width="21.46" height="13.41" transform="translate(-10.29 187.52) rotate(-14.93)"/><rect class="a" x="577.52" y="-1.8" width="10.32" height="6.45" transform="translate(138.78 425.39) rotate(-42.49)"/><rect class="l" x="577.52" y="-1.8" width="10.32" height="6.45" transform="translate(138.78 425.39) rotate(-42.49)"/><rect class="a" x="561.83" y="3.91" width="12.25" height="7.65" transform="translate(258.52 523.85) rotate(-59.36)"/><rect class="l" x="561.83" y="3.91" width="12.25" height="7.65" transform="translate(258.52 523.85) rotate(-59.36)"/><rect class="a" x="163.34" y="283.28" width="23.45" height="14.65" transform="translate(-174.48 367.14) rotate(-66.58)"/><rect class="m" x="167.74" y="278.88" width="14.65" height="23.45" transform="translate(206.89 658.27) rotate(-156.58)"/><rect class="a" x="134.31" y="263.1" width="20.39" height="12.74" transform="translate(-101.86 102.96) rotate(-21.46)"/><rect class="m" x="138.14" y="259.28" width="12.74" height="20.39" transform="translate(-66.72 533.96) rotate(-111.46)"/><rect class="a" x="134.63" y="233.03" width="8.13" height="13.01" transform="translate(-104.61 116.97) rotate(-26.13)"/><rect class="m" x="134.63" y="233.03" width="8.13" height="13.01" transform="translate(-104.61 116.97) rotate(-26.13)"/><rect class="a" x="110.66" y="198.87" width="14.98" height="23.96" transform="translate(-126.37 171.9) rotate(-43.81)"/><rect class="m" x="110.66" y="198.87" width="14.98" height="23.96" transform="translate(-126.37 171.9) rotate(-43.81)"/><rect class="a" x="80.79" y="200.53" width="10.88" height="17.42" transform="translate(-142.85 172.45) rotate(-50.06)"/><rect class="m" x="80.79" y="200.53" width="10.88" height="17.42" transform="translate(-142.85 172.45) rotate(-50.06)"/><rect class="a" x="111.69" y="176.1" width="10.37" height="6.48" transform="translate(-103.79 263.83) rotate(-71.26)"/><rect class="m" x="113.64" y="174.15" width="6.48" height="10.37" transform="translate(156.67 418.13) rotate(-161.26)"/><rect class="a" x="115.33" y="176.33" width="14.48" height="23.17" transform="translate(-109.44 169.34) rotate(-44.01)"/><rect class="m" x="115.33" y="176.33" width="14.48" height="23.17" transform="translate(-109.44 169.34) rotate(-44.01)"/><rect class="a" x="134.96" y="183.69" width="7.14" height="11.42" transform="translate(-109.17 209.98) rotate(-51.17)"/><rect class="m" x="134.96" y="183.69" width="7.14" height="11.42" transform="translate(-109.17 209.98) rotate(-51.17)"/><rect class="a" x="92.48" y="133.22" width="12.62" height="20.2" transform="translate(-73.62 245.32) rotate(-79.34)"/><rect class="m" x="92.48" y="133.22" width="12.62" height="20.2" transform="translate(-73.62 245.32) rotate(-79.34)"/><rect class="a" x="132.36" y="137.72" width="5.19" height="8.31" transform="translate(-35.84 289.62) rotate(-82.88)"/><rect class="m" x="132.36" y="137.72" width="5.19" height="8.31" transform="translate(-35.84 289.62) rotate(-82.88)"/><rect class="a" x="105.51" y="95.37" width="12.6" height="20.16" transform="translate(-55.12 140.98) rotate(-44.86)"/><rect class="m" x="105.51" y="95.37" width="12.6" height="20.16" transform="translate(-55.12 140.98) rotate(-44.86)"/><rect class="a" x="133.45" y="80.78" width="7.06" height="11.29" transform="translate(-30.09 168.67) rotate(-50.54)"/><rect class="m" x="133.45" y="80.78" width="7.06" height="11.29" transform="translate(-30.09 168.67) rotate(-50.54)"/><rect class="a" x="120.61" y="55.64" width="19.34" height="12.09" transform="translate(-23.03 58.85) rotate(-11.59)"/><rect class="m" x="124.24" y="52.01" width="12.09" height="19.34" transform="translate(82.75 233.12) rotate(-101.59)"/><rect class="a" x="169.38" y="59.63" width="8.46" height="13.54" transform="translate(-24.74 80.41) rotate(-15.56)"/><rect class="m" x="169.38" y="59.63" width="8.46" height="13.54" transform="translate(-24.74 80.41) rotate(-15.56)"/><rect class="a" x="142.5" y="24.55" width="20.68" height="12.93" transform="translate(68.64 201.33) rotate(-74.43)"/><rect class="m" x="146.38" y="20.67" width="12.93" height="20.68" transform="translate(278.45 133.34) rotate(-164.43)"/><rect class="a" x="195.69" y="59.11" width="11.77" height="7.36" transform="translate(117.9 293.26) rotate(-87.83)"/><rect class="m" x="197.9" y="56.91" width="7.36" height="11.77" transform="translate(387.34 164.59) rotate(-177.83)"/><rect class="a" x="192.33" y="34.61" width="5.99" height="9.59" transform="translate(-17.09 78.3) rotate(-13.56)"/><rect class="m" x="192.33" y="34.61" width="5.99" height="9.59" transform="translate(-17.09 78.3) rotate(-13.56)"/><rect class="a" x="189.95" y="41.93" width="8.34" height="13.34" transform="translate(-15.6 41.79) rotate(-3.04)"/><rect class="m" x="189.95" y="41.93" width="8.34" height="13.34" transform="translate(-15.6 41.79) rotate(-3.04)"/><rect class="a" x="183.76" y="26.26" width="11.62" height="18.59" transform="translate(57.67 219.06) rotate(-62.67)"/><rect class="m" x="183.76" y="26.26" width="11.62" height="18.59" transform="translate(57.67 219.06) rotate(-62.67)"/><rect class="a" x="201.18" y="8.9" width="8.13" height="13.02" transform="translate(87.04 223.9) rotate(-63.65)"/><rect class="m" x="201.18" y="8.9" width="8.13" height="13.02" transform="translate(87.04 223.9) rotate(-63.65)"/><rect class="a" x="173.84" y="51.52" width="14.51" height="9.07" transform="translate(-18.25 123.82) rotate(-28.25)"/><rect class="m" x="176.56" y="48.8" width="9.07" height="14.51" transform="translate(204.15 273.52) rotate(-118.25)"/><rect class="a" x="210.81" y="56.49" width="21" height="13.13" transform="translate(-21.17 73.76) rotate(-10.74)"/><rect class="m" x="214.75" y="52.55" width="13.13" height="21" transform="translate(187.31 323.65) rotate(-100.74)"/><path d="M269.69,34.11h10.66V52.18h16.2V34.11h10.58V81.06H296.55V61.47h-16.2V81.06H269.69V34.11Z" transform="translate(-13.29 31.41)"/><path d="M336.08,58.09c-0.22-3.17-1.8-5.18-5.62-5.18-3,0-6,1.22-9.5,3.24l-3.74-7a29.53,29.53,0,0,1,15.27-4.68c9.15,0,14.19,5.18,14.19,16.13V81.06H338l-0.79-3.67H337c-3,2.66-6.41,4.54-10.44,4.54-6.48,0-10.58-4.75-10.58-10.8C316,63.63,322,59.53,336.08,58.09Zm-5.9,15.63c2.45,0,4-1.15,5.9-3V64.42c-7.56,1-10,3.17-10,5.9C326.07,72.63,327.65,73.71,330.17,73.71Z" transform="translate(-13.29 31.41)"/><path d="M372.22,44.48a14.42,14.42,0,0,1,10.44,4.1l-4.82,6.55a7.64,7.64,0,0,0-5-2.09c-5.11,0-8.35,4-8.35,10.15s3.38,10.15,8,10.15a10.29,10.29,0,0,0,6.41-2.59l4.25,6.7a18.53,18.53,0,0,1-11.88,4.46c-9.94,0-17.64-6.84-17.64-18.72S362.35,44.48,372.22,44.48Z" transform="translate(-13.29 31.41)"/><path d="M389.35,30.58h10.3V59.53h0.29l11.3-14.19h11.52L410.24,60l13.46,21H412.25l-8.06-13.9-4.54,5.11v8.78h-10.3V30.58Z" transform="translate(-13.29 31.41)"/><path d="M432.41,68.1c1.8,3.17,4.18,4.68,6.55,4.68,3.82,0,5.83-1.94,5.83-8.21V34.11h10.66V65.43c0,9.07-4.68,16.49-15,16.49-7.2,0-12-2.81-15.19-8.5Z" transform="translate(-13.29 31.41)"/><path d="M484.11,58.09c-0.22-3.17-1.8-5.18-5.62-5.18-3,0-6,1.22-9.5,3.24l-3.74-7a29.53,29.53,0,0,1,15.27-4.68c9.14,0,14.18,5.18,14.18,16.13V81.06H486l-0.79-3.67H485c-3,2.66-6.41,4.54-10.44,4.54-6.48,0-10.58-4.75-10.58-10.8C464,63.63,470,59.53,484.11,58.09Zm-5.9,15.63c2.45,0,4-1.15,5.9-3V64.42c-7.56,1-10,3.17-10,5.9C474.1,72.63,475.68,73.71,478.2,73.71Z" transform="translate(-13.29 31.41)"/><path d="M503.76,45.34h8.64l0.72,4.61h0.29c3-3,6.12-5.47,10.8-5.47,5,0,8.07,2.16,9.87,6,3.17-3.24,6.48-6,11.23-6,7.71,0,11.16,5.47,11.16,14.4V81.06H545.88V60.25c0-5.18-1.37-6.77-4.39-6.77-1.8,0-3.82,1.15-6.12,3.46V81.06H524.79V60.25c0-5.18-1.37-6.77-4.39-6.77-1.73,0-3.82,1.15-6,3.46V81.06H503.76V45.34Z" transform="translate(-13.29 31.41)"/><path d="M193.41,99h-3.58V97.75h8.66V99H194.9v10.55h-1.49V99Z" transform="translate(-13.29 31.41)"/><path d="M200.5,97.75H202v5h5.49v-5H209v11.81H207.5V104H202v5.56H200.5V97.75Z" transform="translate(-13.29 31.41)"/><path d="M212.15,97.75H219V99h-5.29v3.71h4.47V104h-4.47v4.29h5.47v1.28h-7V97.75Z" transform="translate(-13.29 31.41)"/><path d="M225.18,97.75h1.51v10.53h5.15v1.28h-6.66V97.75Z" transform="translate(-13.29 31.41)"/><path d="M233.83,97.75h6.81V99h-5.29v3.71h4.47V104h-4.47v4.29h5.47v1.28h-7V97.75Z" transform="translate(-13.29 31.41)"/><path d="M248.63,106h-4.3l-1.13,3.6h-1.53l4-11.81h1.69l4,11.81h-1.58Zm-0.38-1.21L247.7,103c-0.41-1.31-.79-2.61-1.17-4h-0.07c-0.38,1.37-.76,2.66-1.17,4l-0.58,1.8h3.55Z" transform="translate(-13.29 31.41)"/><path d="M259.4,109.56l-2.84-5h-2.12v5h-1.51V97.75h3.71c2.4,0,4.12.86,4.12,3.31a3.24,3.24,0,0,1-2.65,3.35l3,5.15H259.4Zm-5-6.21h2c1.84,0,2.84-.76,2.84-2.29s-1-2.11-2.84-2.11h-2v4.39Z" transform="translate(-13.29 31.41)"/><path d="M263.28,97.75h1.55l4.29,7.42,1.28,2.45h0.07c-0.07-1.19-.2-2.52-0.2-3.76v-6.1h1.42v11.81h-1.55l-4.27-7.44L264.6,99.7h-0.07c0.07,1.19.18,2.45,0.18,3.69v6.18h-1.42V97.75Z" transform="translate(-13.29 31.41)"/><path d="M274.84,97.75h1.51v11.81h-1.51V97.75Z" transform="translate(-13.29 31.41)"/><path d="M279.48,97.75H281l4.29,7.42,1.28,2.45h0.07c-0.07-1.19-.2-2.52-0.2-3.76v-6.1h1.42v11.81h-1.55l-4.27-7.44L280.8,99.7h-0.07c0.07,1.19.18,2.45,0.18,3.69v6.18h-1.42V97.75Z" transform="translate(-13.29 31.41)"/><path d="M295.81,97.54A4.59,4.59,0,0,1,299.19,99l-0.86,1a3.21,3.21,0,0,0-2.5-1.1c-2.4,0-3.93,1.84-3.93,4.77s1.4,4.84,3.93,4.84a3.29,3.29,0,0,0,2.14-.7v-3.08h-2.5v-1.24h3.87v5a5.31,5.31,0,0,1-3.67,1.37c-3.1,0-5.31-2.27-5.31-6.12S292.64,97.54,295.81,97.54Z" transform="translate(-13.29 31.41)"/><path d="M305.69,97.75h1.51v5h5.49v-5h1.49v11.81h-1.49V104H307.2v5.56h-1.51V97.75Z" transform="translate(-13.29 31.41)"/><path d="M322.74,106h-4.3l-1.13,3.6h-1.53l4-11.81h1.69l4,11.81h-1.58Zm-0.38-1.21L321.8,103c-0.41-1.31-.79-2.61-1.17-4h-0.07c-0.38,1.37-.76,2.66-1.17,4l-0.58,1.8h3.55Z" transform="translate(-13.29 31.41)"/><path d="M331.43,97.54A4.36,4.36,0,0,1,334.65,99l-0.85,1a3.16,3.16,0,0,0-2.36-1.1c-2.25,0-3.75,1.84-3.75,4.77s1.42,4.84,3.67,4.84a3.45,3.45,0,0,0,2.7-1.31l0.85,0.92a4.52,4.52,0,0,1-3.58,1.71c-3,0-5.19-2.27-5.19-6.12S328.41,97.54,331.43,97.54Z" transform="translate(-13.29 31.41)"/><path d="M337,97.75h1.51v5.92h0l4.92-5.92h1.71l-3.71,4.5,4.27,7.31h-1.67l-3.53-6.14-2,2.39v3.75H337V97.75Z" transform="translate(-13.29 31.41)"/><path d="M352.58,106h-4.3l-1.13,3.6h-1.53l4-11.81h1.69l4,11.81h-1.58Zm-0.38-1.21-0.56-1.8c-0.41-1.31-.79-2.61-1.17-4H350.4c-0.38,1.37-.76,2.66-1.17,4l-0.58,1.8h3.55Z" transform="translate(-13.29 31.41)"/><path d="M358.61,99H355V97.75h8.66V99H360.1v10.55h-1.49V99Z" transform="translate(-13.29 31.41)"/><path d="M365.7,97.75h1.51v5h5.49v-5h1.49v11.81h-1.49V104h-5.49v5.56H365.7V97.75Z" transform="translate(-13.29 31.41)"/><path d="M376.66,103.6c0-3.78,2.09-6.07,5.06-6.07s5,2.3,5,6.07-2.09,6.18-5,6.18S376.66,107.4,376.66,103.6Zm8.55,0c0-2.93-1.39-4.75-3.49-4.75s-3.51,1.82-3.51,4.75,1.39,4.86,3.51,4.86S385.22,106.56,385.22,103.6Z" transform="translate(-13.29 31.41)"/><path d="M389.21,97.75h1.55l4.29,7.42,1.28,2.45h0.07c-0.07-1.19-.2-2.52-0.2-3.76v-6.1h1.42v11.81h-1.55l-4.27-7.44-1.28-2.43h-0.07c0.07,1.19.18,2.45,0.18,3.69v6.18h-1.42V97.75Z" transform="translate(-13.29 31.41)"/><path d="M407.82,96.78h1.08l-4.79,15.66H403Z" transform="translate(-13.29 31.41)"/><path d="M414.12,96.78h1.08l-4.79,15.66h-1.1Z" transform="translate(-13.29 31.41)"/><path d="M420.69,107a4.59,4.59,0,0,0,3.26,1.48c1.55,0,2.47-.77,2.47-1.93s-0.86-1.58-2-2.09l-1.69-.74a3.34,3.34,0,0,1-2.39-3c0-1.8,1.58-3.13,3.73-3.13A4.83,4.83,0,0,1,427.55,99l-0.79,1a3.8,3.8,0,0,0-2.68-1.12c-1.33,0-2.21.67-2.21,1.73s1,1.57,2,2l1.69,0.72c1.37,0.59,2.43,1.4,2.43,3.15s-1.55,3.37-4,3.37a5.69,5.69,0,0,1-4.12-1.75Z" transform="translate(-13.29 31.41)"/><path d="M430.16,97.75H437V99h-5.29v3.71h4.47V104h-4.47v4.29h5.47v1.28h-7V97.75Z" transform="translate(-13.29 31.41)"/><path d="M439.55,97.75h3.64c2.61,0,4.36.88,4.36,3.48s-1.78,3.65-4.36,3.65h-2.12v4.68h-1.51V97.75Zm3.44,5.91c2.07,0,3.06-.76,3.06-2.43S445,99,443,99h-1.93v4.7H443Z" transform="translate(-13.29 31.41)"/><path d="M451.87,99h-3.58V97.75h8.66V99h-3.58v10.55h-1.5V99Z" transform="translate(-13.29 31.41)"/><path d="M459,97.75h6.81V99h-5.29v3.71h4.47V104h-4.47v4.29h5.47v1.28h-7V97.75Z" transform="translate(-13.29 31.41)"/><path d="M468.35,97.75h1.78l2.29,6.34,0.85,2.41h0.07l0.83-2.41,2.27-6.34h1.76v11.81h-1.42v-6.5c0-1,.13-2.45.2-3.49h-0.07L476,102.2l-2.27,6.18h-0.86l-2.27-6.18-0.94-2.63h-0.07c0.07,1,.18,2.45.18,3.49v6.5h-1.39V97.75Z" transform="translate(-13.29 31.41)"/><path d="M481.35,97.75h3.51c2.39,0,4.07.81,4.07,2.88a2.57,2.57,0,0,1-2.07,2.57v0.07c1.73,0.27,2.74,1.21,2.74,2.83,0,2.32-1.84,3.46-4.47,3.46h-3.78V97.75Zm3.26,5c2,0,2.85-.72,2.85-2s-1-1.82-2.77-1.82h-1.82v3.85h1.75Zm0.31,5.58c2,0,3.21-.74,3.21-2.34s-1.13-2.12-3.21-2.12h-2.05v4.47h2.05Z" transform="translate(-13.29 31.41)"/><path d="M491.84,97.75h6.81V99h-5.29v3.71h4.46V104h-4.46v4.29h5.47v1.28h-7V97.75Z" transform="translate(-13.29 31.41)"/><path d="M507.72,109.56l-2.84-5h-2.12v5h-1.51V97.75h3.71c2.4,0,4.12.86,4.12,3.31a3.24,3.24,0,0,1-2.65,3.35l3,5.15h-1.71Zm-5-6.21h2c1.84,0,2.84-.76,2.84-2.29s-1-2.11-2.84-2.11h-2v4.39Z" transform="translate(-13.29 31.41)"/><path d="M514.4,108.68c3.46-3.44,5.4-5.51,5.4-7.36a2,2,0,0,0-2.18-2.25,3.39,3.39,0,0,0-2.45,1.39l-0.85-.85a4.51,4.51,0,0,1,3.47-1.75,3.19,3.19,0,0,1,3.44,3.39c0,2.16-2,4.3-4.68,7.15,0.63-.05,1.33-0.11,1.93-0.11h3.33v1.28H514.4v-0.88Z" transform="translate(-13.29 31.41)"/><path d="M531.07,106.39H529.5v3.17h-1.4v-3.17h-5.17v-1l4.92-7.35h1.66v7.13h1.57v1.19Zm-3-1.19v-3.33c0-.61.05-1.6,0.09-2.21h-0.07c-0.29.56-.61,1.06-0.94,1.62l-2.68,3.92h3.6Z" transform="translate(-13.29 31.41)"/><path d="M540.19,96.78h1.08l-4.79,15.66h-1.1Z" transform="translate(-13.29 31.41)"/><path d="M546.49,96.78h1.08l-4.79,15.66h-1.1Z" transform="translate(-13.29 31.41)"/><path d="M553.06,107a4.59,4.59,0,0,0,3.26,1.48c1.55,0,2.47-.77,2.47-1.93s-0.86-1.58-2-2.09l-1.69-.74a3.34,3.34,0,0,1-2.39-3c0-1.8,1.58-3.13,3.73-3.13A4.83,4.83,0,0,1,559.92,99l-0.79,1a3.8,3.8,0,0,0-2.68-1.12c-1.33,0-2.21.67-2.21,1.73s1,1.57,2,2l1.69,0.72c1.37,0.59,2.43,1.4,2.43,3.15s-1.55,3.37-4,3.37a5.68,5.68,0,0,1-4.12-1.75Z" transform="translate(-13.29 31.41)"/><path d="M561.84,103.6c0-3.78,2.09-6.07,5.06-6.07s5,2.3,5,6.07-2.09,6.18-5,6.18S561.84,107.4,561.84,103.6Zm8.55,0c0-2.93-1.39-4.75-3.49-4.75s-3.51,1.82-3.51,4.75,1.39,4.86,3.51,4.86S570.4,106.56,570.4,103.6Z" transform="translate(-13.29 31.41)"/><path d="M574.39,97.75h3c3.64,0,5.58,2.11,5.58,5.85s-1.94,6-5.51,6h-3V97.75Zm2.84,10.59c2.77,0,4.14-1.75,4.14-4.74S580,99,577.23,99H575.9v9.36h1.33Z" transform="translate(-13.29 31.41)"/><path d="M590.63,106h-4.3l-1.13,3.6h-1.53l4-11.81h1.69l4,11.81h-1.58Zm-0.38-1.21-0.56-1.8c-0.42-1.31-.79-2.61-1.17-4h-0.07c-0.38,1.37-.76,2.66-1.17,4l-0.58,1.8h3.55Z" transform="translate(-13.29 31.41)"/><path d="M598.55,97.75h1.51v5h5.49v-5H607v11.81h-1.5V104h-5.49v5.56h-1.51V97.75Z" transform="translate(-13.29 31.41)"/><path d="M615.59,106h-4.3l-1.13,3.6h-1.53l4-11.81h1.69l4,11.81h-1.58Zm-0.38-1.21-0.56-1.8c-0.42-1.31-.79-2.61-1.17-4h-0.07c-0.38,1.37-.76,2.66-1.17,4l-0.58,1.8h3.55Z" transform="translate(-13.29 31.41)"/><path d="M619.88,97.75h1.51v10.53h5.15v1.28h-6.66V97.75Z" transform="translate(-13.29 31.41)"/><path d="M628.53,97.75H630v10.53h5.15v1.28h-6.66V97.75Z" transform="translate(-13.29 31.41)"/><path d="M363.95,120.18h2.41V124l-0.08,2a4.73,4.73,0,0,1,3.3-1.55c2.2,0,3.17,1.49,3.17,4.09V135h-2.41v-6.15c0-1.7-.48-2.33-1.62-2.33a3.27,3.27,0,0,0-2.35,1.28V135h-2.41V120.18Z" transform="translate(-13.29 31.41)"/><path d="M381.29,128.41a1.77,1.77,0,0,0-1.87-2,5.74,5.74,0,0,0-2.9,1l-0.88-1.62a8,8,0,0,1,4.22-1.34c2.58,0,3.84,1.57,3.84,4.45V135h-2l-0.19-1.13h-0.06a5,5,0,0,1-3.19,1.39,2.9,2.9,0,0,1-3.07-3C375.23,130,377.07,128.87,381.29,128.41Zm-2.25,5a3.24,3.24,0,0,0,2.25-1.13v-2.31c-2.79.36-3.72,1.09-3.72,2.12A1.27,1.27,0,0,0,379,133.36Z" transform="translate(-13.29 31.41)"/><path d="M391.14,124.44a4.25,4.25,0,0,1,3,1.2L393,127.17a2.57,2.57,0,0,0-1.74-.76c-1.66,0-2.81,1.36-2.81,3.44s1.13,3.42,2.75,3.42a3.41,3.41,0,0,0,2.12-.88l1,1.53a5.16,5.16,0,0,1-3.38,1.32c-2.81,0-5-2-5-5.4A5.08,5.08,0,0,1,391.14,124.44Z" transform="translate(-13.29 31.41)"/><path d="M396.35,120.18h2.37v9.26h0.06l3.82-4.75h2.65l-3.53,4.2,3.88,6.11H403l-2.65-4.47-1.62,1.85V135h-2.37V120.18Z" transform="translate(-13.29 31.41)"/><path d="M407.12,124.69h2.44v10.83c0,2.18-.84,3.8-3.28,3.8a4.71,4.71,0,0,1-1.68-.27l0.46-1.81a3,3,0,0,0,.88.17c0.92,0,1.18-.65,1.18-1.85V124.69Zm-0.27-3.17a1.51,1.51,0,1,1,1.49,1.36A1.4,1.4,0,0,1,406.85,121.52Z" transform="translate(-13.29 31.41)"/><path d="M418.25,128.41a1.77,1.77,0,0,0-1.87-2,5.74,5.74,0,0,0-2.9,1l-0.88-1.62a8,8,0,0,1,4.22-1.34c2.58,0,3.84,1.57,3.84,4.45V135h-2l-0.19-1.13h-0.06a5,5,0,0,1-3.19,1.39,2.9,2.9,0,0,1-3.07-3C412.18,130,414,128.87,418.25,128.41Zm-2.25,5a3.24,3.24,0,0,0,2.25-1.13v-2.31c-2.79.36-3.72,1.09-3.72,2.12A1.27,1.27,0,0,0,416,133.36Z" transform="translate(-13.29 31.41)"/><path d="M423.61,124.69h2l0.17,1.41h0.08a4.36,4.36,0,0,1,3.15-1.66,2.8,2.8,0,0,1,2.86,1.85,4.68,4.68,0,0,1,3.32-1.85c2.18,0,3.19,1.49,3.19,4.09V135h-2.44v-6.15c0-1.7-.5-2.33-1.58-2.33a3.2,3.2,0,0,0-2.16,1.28V135h-2.41v-6.15c0-1.7-.5-2.33-1.6-2.33A3.25,3.25,0,0,0,426,127.8V135h-2.42V124.69Z" transform="translate(-13.29 31.41)"/><path d="M442.68,132a1.64,1.64,0,0,1,0,3.28A1.64,1.64,0,0,1,442.68,132Z" transform="translate(-13.29 31.41)"/><path d="M446.81,121.52a1.5,1.5,0,1,1,1.49,1.36A1.39,1.39,0,0,1,446.81,121.52Zm0.27,3.17h2.42V135h-2.42V124.69Z" transform="translate(-13.29 31.41)"/><path d="M456.81,124.44c2.58,0,4.91,2,4.91,5.42s-2.33,5.4-4.91,5.4-4.89-2-4.89-5.4S454.25,124.44,456.81,124.44Zm0,8.84c1.51,0,2.44-1.36,2.44-3.42s-0.92-3.44-2.44-3.44-2.42,1.36-2.42,3.44S455.3,133.28,456.81,133.28Z" transform="translate(-13.29 31.41)"/><rect class="n" x="186.71" y="311.41" width="425" height="20" rx="10" ry="10"/><path class="o" d="M250.5,272V173a11,11,0,0,1,11-11h158a11,11,0,0,1,11,11v99h-180Z" transform="translate(-13.29 31.41)"/><path class="p" d="M419.5,163a10,10,0,0,1,10,10v98h-178V173a10,10,0,0,1,10-10h158m0-2h-158a12,12,0,0,0-12,12V273h182V173a12,12,0,0,0-12-12h0Z" transform="translate(-13.29 31.41)"/><path class="q" d="M444.5,277h-208v-5h208v5Zm0,0h-208s0,3,14.86,3H429.64C444.5,280,444.5,277,444.5,277Z" transform="translate(-13.29 31.41)"/><rect class="r" x="223.21" y="303.41" width="208" height="5"/><path class="q" d="M429.64,280H251.36c-14.86,0-14.86-3-14.86-3h208S444.5,280,429.64,280Z" transform="translate(-13.29 31.41)"/><rect class="s" x="247.21" y="203.41" width="160" height="90"/><g class="t"><rect class="f" x="247.21" y="203.41" width="160" height="90"/><rect class="u" x="247.21" y="203.41" width="160" height="90"/></g><polygon class="v" points="324.63 214.71 310.1 214.71 310.1 220.95 308.26 220.95 308.26 214.71 293.72 214.71 293.72 245.82 308.26 245.82 308.26 239.58 310.1 239.58 310.1 245.82 324.63 245.82 324.63 214.71"/><path class="v" d="M337.93,250.75v-14.7h-6.25v-1.79h6.25v-14.7H322.34a15.59,15.59,0,0,0,0,31.18h15.59Z" transform="translate(-13.29 31.41)"/><polygon class="v" points="352.4 266.58 360.93 282.13 329.82 282.13 329.82 251.02 360.93 251.02 352.4 266.58"/><path class="v" d="M374.25,214.4H359.57v-6.2h-1.78v6.2H343.1V198.83a15.58,15.58,0,0,1,31.15,0V214.4Z" transform="translate(-13.29 31.41)"/><path class="j" d="M514.5,279c-0.51-1-13-.87-13-26V210a47.15,47.15,0,0,1,1.84-13.09c2.48-10.53,7.17-12.06,7.36-12.13l0.21,0.22H565.5c0.51,0,12-.12,12,25v43a48.54,48.54,0,0,1-1.34,13.09c-2.48,10.53-6.92,12.56-7.11,12.63l0,0.28H514.5Z" transform="translate(-13.29 31.41)"/><path class="j" d="M565.5,185s12,0.08,12,25v43a46.9,46.9,0,0,1-1.57,13c-2.46,10.41-6.93,12-6.93,12H514.5s-12-.08-12-25V210a46.9,46.9,0,0,1,1.57-13c2.46-10.41,6.93-12,6.93-12h54.5m0-1H510.82l-0.17.06c-0.2.07-5,1.94-7.56,12.75A48.22,48.22,0,0,0,501.5,210v43c0,25.62,12.46,26,13,26h54.68l0.17-.06c0.2-.07,5-1.94,7.56-12.76A48.22,48.22,0,0,0,578.5,253V210c0-25.62-12.46-26-13-26h0Z" transform="translate(-13.29 31.41)"/><rect class="w" x="487.27" y="239.41" width="78.87" height="45"/><path class="x" d="M542,210.94a3.08,3.08,0,0,1,.34-1.3,21.45,21.45,0,0,0,.16,3.75,14.5,14.5,0,0,1,.39,4.33c-0.06,1.18-.08,2.36-0.18,3.53a13.39,13.39,0,0,1-1,2.94,1.71,1.71,0,0,0-.86-0.21c0.2-1.9.57-3.75,0.93-5.6a18.82,18.82,0,0,0,.22-4.05C542,213.19,542.16,212.06,542,210.94Z" transform="translate(-13.29 31.41)"/><path class="y" d="M540.26,215.28c0.38-1.58.76-3.37,1.77-4.35,0.13,1.12,0,2.26,0,3.39a18.81,18.81,0,0,1-.22,4.05c-0.37,1.84-.73,3.69-0.93,5.6h-0.86c-0.22-1.38-.55-2.72-0.82-4.09a1.8,1.8,0,0,0-.5-1.05L539,219a9,9,0,0,1,.62-4.28,4.5,4.5,0,0,0,.32-1.79A7,7,0,0,1,540.26,215.28Z" transform="translate(-13.29 31.41)"/><path class="z" d="M545.61,213.69h0.13a9.16,9.16,0,0,0-.08,3,8.17,8.17,0,0,1-.16,2.78c1.05-.72,2.38.13,3.3-1.06a6,6,0,0,0,1.45-3.09,8.81,8.81,0,0,1-.71,3.65,6.18,6.18,0,0,1-1.14,1.43,10.32,10.32,0,0,0-1.31,2.15l-0.18,0a4.09,4.09,0,0,0-2.39.14,15.94,15.94,0,0,0-2.33,1.66,10.28,10.28,0,0,1,.66-3.24c0.82-1.59,1.93-3,2.17-5.07,0.08-.37.17-0.73,0.26-1.09S545.49,214.08,545.61,213.69Z" transform="translate(-13.29 31.41)"/><path class="aa" d="M536.49,216.19a2.81,2.81,0,0,1,.57-1.89c-0.16,1.07-.38,2.35.2,3.25a2.89,2.89,0,0,0,1.48,1.29,1.8,1.8,0,0,1,.5,1.05c0.28,1.36.6,2.7,0.82,4.09-0.39,0-.79.09-1.18,0.15-0.35-1-.17-2.24-0.45-3.3a5.12,5.12,0,0,0-1.2-2.17A6.14,6.14,0,0,1,536.49,216.19Z" transform="translate(-13.29 31.41)"/><path class="ab" d="M530.79,217.86a12.18,12.18,0,0,1-.57-3.24,2.38,2.38,0,0,0,.9,1h-0.37a26,26,0,0,0,1.36,2.84,15.93,15.93,0,0,0,1.68,2.75,17.31,17.31,0,0,1,2.81,3.61c-0.82,0-1.61-.55-2.44-0.36l-0.13,0a3.92,3.92,0,0,0-.85-0.94,5.74,5.74,0,0,1-1.62-2.2,40.76,40.76,0,0,0-1.57-3.8Z" transform="translate(-13.29 31.41)"/><path class="ac" d="M544.56,216.2a1.89,1.89,0,0,1,.72-1.32c-0.09.36-.19,0.72-0.26,1.09Z" transform="translate(-13.29 31.41)"/><path class="ad" d="M530.75,215.65h0.37c1.42,0.36,2.65,1.77,3.53,3.38,0.94,2,1.31,4.45,2.48,6.22h-0.29l-0.23-.39a17.31,17.31,0,0,0-2.81-3.61,15.93,15.93,0,0,1-1.68-2.75A26,26,0,0,1,530.75,215.65Z" transform="translate(-13.29 31.41)"/><path class="ae" d="M534.59,215.82l0.13,0,0.18,0.59,0.08,0.49a12.9,12.9,0,0,0,1.57,4.56,12.42,12.42,0,0,1,.62,1.9c0.24,0.53.54,1,.81,1.5a2.65,2.65,0,0,1-.85.42c-1.17-1.77-1.55-4.23-2.48-6.22A10.06,10.06,0,0,0,534.59,215.82Z" transform="translate(-13.29 31.41)"/><path class="af" d="M542.92,217.71c0.56-.49,1.1-1,1.65-1.52L545,216c-0.25,2-1.35,3.49-2.17,5.07l-0.11.2C542.83,220.07,542.85,218.89,542.92,217.71Z" transform="translate(-13.29 31.41)"/><path class="ag" d="M535,216.86a6.73,6.73,0,0,0,2,2.57l0.21-.77a5.12,5.12,0,0,1,1.2,2.17c0.28,1.06.1,2.27,0.45,3.3l0.09,0.3a4.71,4.71,0,0,0-1,.39c-0.27-.5-0.57-1-0.81-1.5a12.42,12.42,0,0,0-.62-1.9A12.9,12.9,0,0,1,535,216.86Z" transform="translate(-13.29 31.41)"/><path class="ah" d="M541.77,224.18a13.39,13.39,0,0,0,1-2.94l0.11-.2a10.28,10.28,0,0,0-.66,3.24A0.42,0.42,0,0,1,541.77,224.18Z" transform="translate(-13.29 31.41)"/><path class="ai" d="M531.57,221.32a5.74,5.74,0,0,0,1.62,2.2c-0.69.1-1.36-.3-2.06-0.21a19.88,19.88,0,0,0-3.3,1c-0.69.2-1.39-.28-2.07,0a1.84,1.84,0,0,1-.49-0.67,3.49,3.49,0,0,0,1.8.12c1.19-.31,2-1.81,3.25-2.07a1.52,1.52,0,0,1,1.22.12Z" transform="translate(-13.29 31.41)"/><path class="aj" d="M527.84,224.26a19.88,19.88,0,0,1,3.3-1c0.69-.09,1.36.31,2.06,0.21a3.92,3.92,0,0,1,.85.94c-1.66-.21-3.27.56-4.9,0.9a1.71,1.71,0,0,1-1.35-.35c-0.65-.39-1.43-0.12-2-0.77C526.45,224,527.14,224.46,527.84,224.26Z" transform="translate(-13.29 31.41)"/><path class="ak" d="M533.14,223.89c11.75-6,18.35.58,18.35,0.58,7.63,11.22-4,23.54-4,23.54-10.5,5.28-14.31-1.76-14.31-1.76-9.07-10.77-5.67-19-5.67-19C531.18,223.45,533.14,223.89,533.14,223.89Z" transform="translate(-13.29 31.41)"/><path class="al" d="M540.49,250c-7.2,2-18.69-18.49-11.44-24.16l4.1-1.92c-3.81,5,2.66,21.25,2.66,21.25Z" transform="translate(-13.29 31.41)"/><path class="am" d="M533.38,231.18c-0.15-.72-0.23-1.76.64-1.75a2.19,2.19,0,0,1-.46,1.81l-0.13.21Z" transform="translate(-13.29 31.41)"/><path class="am" d="M536.06,232.26c-0.24-.69-0.45-1.72.42-1.82a2.19,2.19,0,0,1-.23,1.85l-0.11.22Z" transform="translate(-13.29 31.41)"/><path class="am" d="M533.38,236.41c-0.15-.72-0.23-1.76.64-1.75a2.19,2.19,0,0,1-.46,1.81l-0.13.21Z" transform="translate(-13.29 31.41)"/><path class="am" d="M531.22,236.41c-0.15-.72-0.23-1.76.64-1.75a2.19,2.19,0,0,1-.46,1.81l-0.13.21Z" transform="translate(-13.29 31.41)"/><path class="am" d="M535.5,240.68c-0.15-.72-0.23-1.76.64-1.75a2.19,2.19,0,0,1-.46,1.81l-0.13.21Z" transform="translate(-13.29 31.41)"/><path class="am" d="M531.36,241c-0.24-.69-0.45-1.72.42-1.82a2.19,2.19,0,0,1-.23,1.85l-0.11.22Z" transform="translate(-13.29 31.41)"/><path class="am" d="M548.39,238.24c-0.15-.72-0.23-1.76.64-1.75a2.19,2.19,0,0,1-.46,1.81l-0.13.21Z" transform="translate(-13.29 31.41)"/><path class="am" d="M551.25,235.4c-0.15-.72-0.23-1.76.64-1.75a2.19,2.19,0,0,1-.46,1.81l-0.13.21Z" transform="translate(-13.29 31.41)"/><path class="am" d="M540.47,228.1c-0.15-.72-0.23-1.76.64-1.75a2.19,2.19,0,0,1-.46,1.81l-0.13.21Z" transform="translate(-13.29 31.41)"/><path class="am" d="M537.2,226c-0.15-.72-0.23-1.76.64-1.75a2.19,2.19,0,0,1-.46,1.81l-0.13.21Z" transform="translate(-13.29 31.41)"/><path class="am" d="M545.16,226.55c-0.15-.72-0.23-1.76.64-1.75a2.19,2.19,0,0,1-.46,1.81l-0.13.21Z" transform="translate(-13.29 31.41)"/><path class="am" d="M530.67,231.61c-0.15-.72-0.23-1.76.64-1.75a2.19,2.19,0,0,1-.46,1.81l-0.13.21Z" transform="translate(-13.29 31.41)"/><path class="am" d="M543,231.18c-0.15-.72-0.23-1.76.64-1.75a2.19,2.19,0,0,1-.46,1.81l-0.13.21Z" transform="translate(-13.29 31.41)"/><path class="am" d="M532,227.51c-0.15-.72-0.23-1.76.64-1.75a2.19,2.19,0,0,1-.46,1.81l-0.13.21Z" transform="translate(-13.29 31.41)"/><path class="am" d="M549.75,226.76c-0.15-.72-0.23-1.76.64-1.75a2.19,2.19,0,0,1-.46,1.81l-0.13.21Z" transform="translate(-13.29 31.41)"/><path class="am" d="M528.85,234.39c-0.15-.72-0.23-1.76.64-1.75a2.19,2.19,0,0,1-.46,1.81l-0.13.21Z" transform="translate(-13.29 31.41)"/><path class="am" d="M533,243.69c-0.15-.72-0.23-1.76.64-1.75a2.19,2.19,0,0,1-.46,1.81L533,244Z" transform="translate(-13.29 31.41)"/><path class="am" d="M539.07,236.22c-0.15-.72-0.23-1.76.64-1.75a2.19,2.19,0,0,1-.46,1.81l-0.13.21Z" transform="translate(-13.29 31.41)"/><path class="am" d="M542.09,241.66c-0.24-.69-0.45-1.72.42-1.82a2.19,2.19,0,0,1-.23,1.85l-0.11.22Z" transform="translate(-13.29 31.41)"/><path class="am" d="M544.77,244.87c-0.15-.72-0.23-1.76.64-1.75a2.19,2.19,0,0,1-.46,1.81l-0.13.21Z" transform="translate(-13.29 31.41)"/><path class="am" d="M537.2,242.68c-0.15-.72-0.23-1.76.64-1.75a2.19,2.19,0,0,1-.46,1.81l-0.13.21Z" transform="translate(-13.29 31.41)"/><path class="am" d="M540.19,247c-0.24-.69-0.45-1.72.42-1.82a2.19,2.19,0,0,1-.23,1.85l-0.11.22Z" transform="translate(-13.29 31.41)"/><path class="am" d="M543,248.72c-0.15-.72-0.23-1.76.64-1.75a2.19,2.19,0,0,1-.46,1.81L543,249Z" transform="translate(-13.29 31.41)"/><path class="am" d="M535.89,247.71c-0.15-.72-0.23-1.76.64-1.75a2.19,2.19,0,0,1-.46,1.81l-0.13.21Z" transform="translate(-13.29 31.41)"/><path class="am" d="M544,235.4c-0.15-.72-0.23-1.76.64-1.75a2.19,2.19,0,0,1-.46,1.81l-0.13.21Z" transform="translate(-13.29 31.41)"/><path class="am" d="M545,239.26c-0.24-.69-0.45-1.72.42-1.82a2.19,2.19,0,0,1-.23,1.85l-0.11.22Z" transform="translate(-13.29 31.41)"/><path class="am" d="M548,243.69c-0.15-.72-0.23-1.76.64-1.75a2.19,2.19,0,0,1-.46,1.81L548,244Z" transform="translate(-13.29 31.41)"/><path class="am" d="M528.46,228.58c-0.15-.72-0.23-1.76.64-1.75a2.19,2.19,0,0,1-.46,1.81l-0.13.21Z" transform="translate(-13.29 31.41)"/><path class="am" d="M547.61,231.18c-0.15-.72-0.23-1.76.64-1.75a2.19,2.19,0,0,1-.46,1.81l-0.13.21Z" transform="translate(-13.29 31.41)"/><path class="am" d="M550.65,229.4c-0.24-.69-0.45-1.72.42-1.82a2.19,2.19,0,0,1-.23,1.85l-0.11.22Z" transform="translate(-13.29 31.41)"/><rect class="an" x="495.71" y="201.91" width="62" height="12" rx="2" ry="2"/><path class="ao" d="M569,171.5a1,1,0,0,1,1,1v8a1,1,0,0,1-1,1H511a1,1,0,0,1-1-1v-8a1,1,0,0,1,1-1h58m0-2H511a3,3,0,0,0-3,3v8a3,3,0,0,0,3,3h58a3,3,0,0,0,3-3v-8a3,3,0,0,0-3-3h0Z" transform="translate(-13.29 31.41)"/></svg>